<svg width="686" height="433" viewBox="0 0 686 433" fill="none" xmlns="http://www.w3.org/2000/svg">
<rect width="686" height="433" fill="#E5E5E5"/>
<rect width="686" height="433" fill="white"/>
<path fill-rule="evenodd" clip-rule="evenodd" d="M334.5 282C375.645 282 409 246.407 409 202.5C409 158.593 375.645 123 334.5 123C293.355 123 260 158.593 260 202.5C260 246.407 293.355 282 334.5 282ZM334 242.973C354.435 242.973 371 225.176 371 203.223C371 181.269 354.435 163.473 334 163.473C313.565 163.473 297 181.269 297 203.223C297 225.176 313.565 242.973 334 242.973Z" fill="#C4C4C4"/>
<rect x="399" y="188" width="103" height="24" rx="12" fill="#C4C4C4"/>
<rect x="167" y="188" width="103" height="24" rx="12" fill="#C4C4C4"/>
</svg>
